<?xml version="1.0" encoding="utf-8"?>
<!-- Generator: Adobe Illustrator 21.1.0, SVG Export Plug-In . SVG Version: 6.00 Build 0)  -->
<svg version="1.1" id="Layer_1" xmlns="http://www.w3.org/2000/svg" xmlns:xlink="http://www.w3.org/1999/xlink" x="0px" y="0px"
	 viewBox="0 0 576 539.2" style="enable-background:new 0 0 576 539.2;" xml:space="preserve">
<style type="text/css">
	.st0{fill:#A0A2A3;}
	.st1{fill:#0C233F;}
	.st2{fill:#FFFFFF;}
	.st3{fill:#79BC43;}
	.st4{fill:#266092;}
</style>
<title>lynx-primary-logo</title>
<path class="st0" d="M524.5,189.9l-2.7-7.8c-1.8-5.1-3.7-10-5.8-14.9c12.5-18.4,31.1-44,57.1-84.6c0,0-11.4,10.7-40.7,26
	c2-6.1,3.4-12.4,4.3-18.8c0,0-15.3,16.1-42.6,35.6C427.5,21.6,298.6-23,182.2,17.5C43.2,65.8-30.6,218.1,17.6,357.1
	c48.2,139.1,200,212.9,339.1,164.7c0.2-0.1,0.4-0.1,0.5-0.2C493.6,474.3,567.2,326.8,524.4,190L524.5,189.9z"/>
<path class="st1" d="M515.5,192.7l-2.6-7.6c-2.3-6.6-4.8-13.1-7.6-19.4c14.6-24.2,38.3-51.7,38.3-51.7c-7.1,5.8-17.1,10.7-28.3,15.3
	c3-5.6,6-11.5,8.9-17.9c0,0-11.7,11.3-32.9,26.6l-0.2,0.1c-46.4-78.1-130.5-126-221.3-126l0,0c-28.7,0-57.3,4.8-84.4,14.3
	C51.2,73-20,219.9,26.5,354C73,488.3,219.5,559.4,353.7,513c0.2-0.1,0.3-0.1,0.5-0.2c131.5-45.7,202.5-188,161.2-320L515.5,192.7z
	 M428.9,161.9l-0.5,0.3c-2.3,1.3-4.7,2.6-7.1,4c-13.4-19.7-30.6-36.6-50.5-49.8c-0.1-3.8,0-7.2,0.1-10.1
	C393.9,120.6,413.7,139.5,428.9,161.9 M88.2,332.6C53.4,232.5,106.6,122.8,206.7,88c53.8-18.7,113.1-12.6,161.9,16.8
	c-1.1,2.7-2.3,5.3-3.4,7.9C318.3,84,261,77.9,209.1,96C113.4,129.2,62.6,234.1,95.8,329.9c20.3,58.3,68.5,102.6,128.4,117.9
	c3.4,4.5,7.6,8.3,12.5,11.2C167.9,446.9,111.1,398.6,88.2,332.6"/>
<path class="st2" d="M85.6,429.4c-0.3,0.2-0.4,0-0.3-0.3l4.8-23.8l-24-1.9c-0.3,0-0.5-0.1-0.2-0.4l26-22l5.3,7.1l-11,9.2l12.9,0.9
	c0.1,0,0.3,0.1,0.3,0.3c0,0,0,0.1,0,0.1l-2.6,12.9l12-8l5.3,7.1L85.6,429.4z"/>
<rect x="48.1" y="360.1" transform="matrix(0.9096 -0.4155 0.4155 0.9096 -145.6247 59.9557)" class="st2" width="33.7" height="9"/>
<path class="st2" d="M51.9,328l16.3-3.7l1.9,8.2l-33.2,7.6c-0.3,0.1-0.6,0-0.2-0.6L48.9,315l-16.4,3.8l-1.8-8.3l33.3-7.6
	c0.4-0.1,0.6,0,0.2,0.7L51.9,328z"/>
<path class="st2" d="M44.6,272.4l16.8,0.4l-0.2,8.5l-34.1-0.8c-0.3,0-0.5-0.2-0.1-0.7L44.9,259l-16.9-0.4l0.2-8.5l34.1,0.8
	c0.4,0,0.5,0.2,0.1,0.7L44.6,272.4z"/>
<polygon class="st2" points="32.8,220.7 38.8,197.8 46.1,199.8 42.4,213.9 47.8,215.3 50.9,203.5 57.8,205.3 54.7,217.1 60.3,218.6 
	64.2,203.8 71.5,205.6 65.4,229.2 "/>
<path class="st2" d="M72.7,186.1l-1.4-8c2.8-0.4,5.2-2.1,6.5-4.6c1.2-2.4,1.2-4.2-0.4-5c-1.3-0.7-2.4,0-4.1,1.7l-3,3
	c-3.7,3.6-7.9,5.4-12.9,2.9c-5.9-3-6.5-9.5-3.7-14.8c2.7-5.3,6.2-7.5,9.2-8.2l2.5,7c-2.1,0.6-3.9,2.1-4.8,4.1c-1,2-0.6,3.4,0.6,4
	s2,0.2,3.3-1l3.3-3.3c5-4.9,8.9-5.6,13.2-3.4c5.5,2.8,7.7,8.3,3.7,16.2C81.2,183.2,76.1,185.5,72.7,186.1"/>
<path class="st2" d="M86.6,138.6c-7.7-6.6-7.7-17.5-1.4-24.9c6.3-7.4,17.1-9.2,24.8-2.6c7.7,6.6,7.7,17.6,1.4,25
	C105.2,143.5,94.4,145.2,86.6,138.6 M104.1,118.1c-4-3.4-9.2-3.7-12.9,0.6c-3.6,4.3-2.6,9.4,1.4,12.9c4,3.4,9.3,3.7,12.9-0.6
	C109.2,126.7,108.2,121.6,104.1,118.1"/>
<polygon class="st2" points="127.5,84.4 120.4,89.7 115.9,83.6 137.5,67.7 142,73.8 134.8,79.1 150.3,100.1 143,105.4 "/>
<path class="st2" d="M176.5,64.8l0.5,19.2l-8,3.6l0.8-38c0-0.4,0.3-0.5,0.5-0.2l29,24.5l-8.5,3.8L176.5,64.8z"/>
<polygon class="st2" points="244.7,29.7 253.8,29.2 255.3,55.2 269.6,54.4 270.1,61.9 246.8,63.3 "/>
<polygon class="st2" points="286.9,28.7 296.7,30 301.7,43.1 309.9,31.8 319.3,33.1 304.9,51.7 303.1,64.8 294.1,63.6 295.9,50.7 
	"/>
<path class="st2" d="M346.4,58.6l-6.1,15.6l-7.9-3.1l12.4-31.7c0.1-0.3,0.3-0.5,0.7,0.2l13.4,23.9l6.2-15.7l7.9,3.1l-12.5,31.8
	c-0.1,0.4-0.3,0.4-0.7-0.2L346.4,58.6z"/>
<polygon class="st2" points="398,64.5 406.2,70.3 405.4,80.1 414.4,76.1 422.1,81.5 405.3,88.3 404.1,110 395.9,104.2 396.9,91 
	384.7,96.3 377.1,90.9 397,82.8 "/>
<path class="st3" d="M234.9,142.3l-11.6,17.2c6,4.2,11.4,9,16.4,14.4c-12.9-2.5-26.9-4.7-26.9-4.7l-22.2,12.3l10.3-17.4
	c-4.9-4-10-7.7-15.3-11.1c8.9,0.2,25.8,1.4,25.8,1.4L234.9,142.3z"/>
<path class="st4" d="M176.5,188.3c0,0-5.2,9.6-6.1,11.3c0,0-58.1,79.1-19.3,192.9c0,0-68.2-59.9-48.8-157
	C102.4,235.4,137.3,184.2,176.5,188.3"/>
<path class="st4" d="M109.8,209.6c0,0,15.8-38.5,33.3-54.6c0,0,26.9-4,45.8,11.3c0,0-5.2,9.1-6.7,11.9
	C182.2,178.2,150.1,168.1,109.8,209.6"/>
<path class="st4" d="M220.1,106.3c0,0-4,16.5,9,29c0,0-15.4,6.7-19.8,8.6c0,0-35.5-1.4-54.9-0.3
	C154.4,143.7,180.3,118.1,220.1,106.3"/>
<path class="st4" d="M240.8,130.4c0,0-14.4-7.1-8.8-27.2c0,0,36.2-10.9,86,2.9C318,106.1,287.9,110.1,240.8,130.4"/>
<path class="st4" d="M359.3,124.8c-5.7-3.7-11.7-6.9-17.9-9.6c-42.4,0.8-83,22.1-83,22.1c29.7,9,30.6-0.5,85.1,14.2
	C349.2,142.9,354.5,134,359.3,124.8"/>
<path class="st4" d="M373.9,143.3c3.3,13.4,12.3,23.4,20.1,29.8c1.7,1.1,3.3,2.2,4.9,3.3c3.9-1.5,7.3-2.9,10.3-4.2
	c-10.4-14.6-22.9-27.6-37.2-38.4C372.6,136.9,373.1,140.1,373.9,143.3"/>
<path class="st4" d="M296.3,201.9c15.2-11.9,28.8-25.8,40.5-41.2c-37.5-9.7-64.7-4.8-87.9-15.1c0,0-7.3,8.7-9,11.9
	c0,0,14.5,15.3,17.8,18.9C257.8,176.5,273.9,185,296.3,201.9"/>
<path class="st4" d="M213.6,415.3c0,0-5.6-10.6-5-22.9c0,0-17.8-9.5-23.4-29c0,0-16.7-8.4-16.7-28.5c0-20.1,15.4-32.2,19.5-35.9
	s10.1-9.7,11.5-13.4c0.2-0.9,0.1-1.8-0.2-2.7c-0.7-1.9-1.2-3.9-1.6-5.9c-1.4-5.7-0.9-11.6,1.4-17c3-6.6,8.1-15.1,25.3-25.3
	c-13.7-33.4-33.1-42.2-33.1-42.2c-2,1.3-6.9,5.8-6.9,5.8c-7.5,11.6-33.8,50.5-35.6,112.7c-1.8,62.1,19.5,95.8,19.5,95.8
	c15.1,10.5,31.5,18.8,48.9,24.9C215.3,426.4,214.1,420.9,213.6,415.3"/>
<path class="st4" d="M233.9,229.6c12.2-6.1,28.7-12.7,51.4-19.8l1.3-0.9c-20.9-15.6-36-23.9-36-23.9c-11.5-3.6-34.4-6.7-34.4-6.7
	c-2,0.8-14.7,7.7-14.7,7.7C217.1,198.2,227.1,212.9,233.9,229.6"/>
<path class="st3" d="M223.9,326.5c0,0-14.9-0.2-23.1,1.9c0,0,1.4,3,2.1,3.5c0,0,11.5-1.3,18.9-1.4L223.9,326.5z"/>
<path class="st3" d="M207,270.1c0,0,5.4,11.6,16,10.5C223,280.7,204.1,295,207,270.1"/>
<path class="st3" d="M270.2,279.1c0,0,13.4-3.7,19.4-8.9c6.1-5.2,18.2-11.2,18.2-11.2S297,291.6,270.2,279.1"/>
<path class="st2" d="M235.2,359.2c3.9,0.5,7.9,0.6,11.8,0.2c0,0,0.3,9.5,3.2,15.7C250.3,375.1,239.2,370,235.2,359.2"/>
<path class="st2" d="M195.5,362.9c2.4,6.6,7.5,11.9,14,14.6c0,0-3.6-10.1-3.3-16.3C206.3,361.3,199.8,363.7,195.5,362.9"/>
<path class="st2" d="M224.1,409.4c2.8-1,5.7-1.8,8.6-2.4c0,0-6.5-5.4-9.5-11.5C223.3,395.4,220.5,402.7,224.1,409.4"/>
<path class="st2" d="M246.8,392.4c-0.8,4.3-0.3,8.8,1.4,12.9c3.2-0.6,6.4-0.8,9.6-0.4C253.5,401.3,249.8,397.1,246.8,392.4"/>
<path class="st2" d="M502.9,150.3c0,0-10.8,11.5-15.1,35.3c-4.3,23.7,5,63.3-16.2,93.5c0,0-9.4-9.9-9.6-19.7
	c-0.1-9.8,0-23.1-3.1-35.3c0,0-5.3,17.6-16.1,23.4c0,0-11.5-16.9,0-40.6C454.4,183.1,491.1,156.1,502.9,150.3"/>
<path class="st0" d="M360.9,294.2c-66.2,0-115.1,26.6-115.1,26.6s37.8-35.6,112.2-35.6c91.4,0,128.8,47,128.8,47
	c-10.8-37.9-32.1-50.4-48.2-71.2c-17.5-22.7-17.5-46.8,1.2-70s51.1-41,51.1-41s-59.2,23.8-81.5,32.8c-22.3,9.1-32.1,11.8-53.7,17
	c-21.6,5.3-55.4,12.1-83.1,27.9c-27.7,15.8-29.2,30.2-29.2,30.2c-7-10.9-4.1-20.7-4.1-20.7c-6.8,4-28.2,12.9-27.5,23.5
	c1,14.9,23.1,13.7,23.1,13.7c-6.7,13.3-16.9,16-16.9,16c-5,8-9.6,8-9.6,8c-0.5-1.3-1.6-4.5-1.6-4.5c-25.2,18.6-27.3,31.1-27.3,31.1
	c2.7,1.5,5.3,3.3,7.5,5.4l-8.2,0.6c-0.5,2.5,0,7.5,0,7.5c8.5,2.6,10.4,5.4,10.4,5.4c-1.8-0.2-9.2,0.2-9.2,0.2
	c1.3,4.7,5.5,8,10.4,8.1c8.6,0.4,14.6-8.1,14.6-8.1c-7.2-8.3-11.3-20-11.3-20l9.9-15.1c-1,3.8-3.6,13.9-3.6,13.9
	c8.3-2.5,23.4-2.9,23.4-2.9c12.6-8.3,27.8-16.9,27.8-16.9c-26.3,23-29.1,41.1-29.1,41.1c19.8,14.8,41.7-1.7,49.3-5.4
	c0,0,25.5-10.1,37.4-14s45.7-11.5,45.7-11.5c-59.7-1.4-105.4,23-105.4,23s25.9-30.9,104.4-30.9c86,0,135.6,52.9,135.6,52.9
	C473.9,321.5,421.3,294.2,360.9,294.2 M280.2,266.6c13.1-10.6,38.3-22.7,56.1-26.5c0,0-15.8,14.4-21.5,26.9c-0.7,1.5-1.6,3-2.6,4.4
	c5.3-0.9,11.8-2.5,11.8-2.5c-9.5,11.3-35.8,20.2-35.8,20.2c0.6-0.2,1.2-0.5,1.7-0.8c-6,2.2-12.5,2.3-18.5,0.4
	c-2.2,1.8-3.7,4.2-4.6,6.9c-3.6-3.6-6.7-12-7.5-14.5c-2.7-2.6-5.1-5.5-7.1-8.6C252.1,272.4,267.1,277.2,280.2,266.6"/>
<path class="st0" d="M313.7,200.7c0,0,26.2-21.8,50.2-64.1c0,0,3.4,28.9,24.3,43.6c0,0-15.8,6.5-27.3,8.6
	C349.4,191,313.7,200.7,313.7,200.7"/>
<path class="st2" d="M226,419.2c0,0,21.4-6.4,40.7-5.9c0,0,43.7-27.4,21.6-68.8c0,0,23.9-18.5,87.7-13.4c0,0-45.1-19.9-107.2,9.1
	c0,0,45.8-29.4,90.4-26.6c54,3.4,74,16.6,85.8,31.9c13.4,17.3,14.2,43,8.2,62.7c0,0-3.6-45.8-56.3-48.6c0,0,69,44.7-5.9,118.8
	c0,0-2.7-63.6-66.7-68.3c3.4-3.5,7.2-6.6,11.1-9.4c0,0-26.7-2.2-51.8,20.6c-24.5,22.3-12.5,31.5-12.5,31.5S233.3,460.7,226,419.2"/>
</svg>
