<?xml version="1.0" encoding="utf-8"?>
<!-- Generator: Adobe Illustrator 22.1.0, SVG Export Plug-In . SVG Version: 6.00 Build 0)  -->
<svg version="1.1" baseProfile="tiny" id="Layer_1" xmlns="http://www.w3.org/2000/svg" xmlns:xlink="http://www.w3.org/1999/xlink"
	 x="0px" y="0px" viewBox="0 0 648 648" xml:space="preserve">
<g>
	<path fill="#A0A2A3" d="M599.7,238.1l0.1-0.1l-2.9-8.4C556.7,113.8,447.4,36,324.9,36h0c-32.1,0-63.9,5.4-94.5,16
		C80.4,104.1,0.8,268.5,52.8,418.4C93.1,534.2,202.4,612,324.9,612c32.1,0,63.9-5.4,94.5-16C566.5,544.9,646,385.8,599.7,238.1"/>
	<path fill="#0C233F" d="M324.9,601.8c-118.2,0-223.6-75-262.5-186.7C12.2,270.4,89.1,111.8,233.8,61.6
		c29.5-10.2,60.2-15.4,91.1-15.4c118.2,0,223.7,75,262.5,186.7l1.3,3.8l0,0c47.6,143.6-29.2,299.9-172.6,349.7
		C386.5,596.7,355.8,601.8,324.9,601.8"/>
	<path fill="#266092" d="M353.7,199.3c-1.5-0.2-3.3-0.3-5.3-0.4c-10.1-0.7-26.3-1.9-45.7-8.6c-4,4.4-7.2,9-9.7,12.9
		c5,5.2,14.5,15.1,19.2,20.4c8.1,4.9,16.3,10.2,24.4,15.9c12.9-14.5,24.3-26.3,35.6-38.1c-5.5-0.8-11.2-1.4-17.1-1.9L353.7,199.3z"
		/>
	<path fill="#266092" d="M233.1,247.1c-21.4,30.1-36.7,69.5-38.2,116.5c22.9-25.2,41.7-48.5,54.6-60.9c8.9-8.6,17.9-14.4,26-18.4
		c-8.5-19.6-19.8-35.7-35-43.4C237.7,243,235.2,245,233.1,247.1"/>
	<path fill="#266092" d="M294,173.8c12.7-5.2,26.5-10.5,39.9-14.9c16.8-6.1,31.8-9.5,43.4-11.3c-0.3-0.1-0.6-0.2-0.9-0.3
		c-8.3-2.4-16.6-4.2-24.8-5.4c-22.8-3.4-45.5-2.3-67,2.6c-1.2,4-2.9,11.8-0.1,18.9C286.1,167.7,289.3,171.1,294,173.8"/>
	<path fill="#266092" d="M267.5,225.5c-5,2.4-10.6,5.2-15.9,8.3c15,9.8,26.1,26.4,34.6,46c11.9-4.1,20.1-4.2,20.1-4.2
		c8-10.2,15.4-19.1,22.3-27.2c-8-5.6-16.1-10.8-24.1-15.6C295.8,229.6,274.7,226.5,267.5,225.5"/>
	<path fill="#266092" d="M312.9,181.2c15,4.4,27.4,5.3,36.3,5.9c2.1,0.1,4,0.3,5.6,0.4l1.3,0.1c5.8,0.5,13.9,1.4,23.4,3.1
		c7.1-8.7,15.6-14.1,21.4-15.4c6.8,2.5,10.3,6.5,12.7,12.2c9.4,3.9,15.7,10.9,19.9,19.2c21.8,9.5,43.7,23.5,60.4,44.3
		c-17.5-40.5-49.5-74.5-91.4-94l0,0.2c-0.5,0-39.2-0.9-87.1,22.3C314.6,180.1,313.7,180.7,312.9,181.2"/>
	<path fill="#266092" d="M508.3,308.8c-4.7-21.8-20.2-62-69.8-87.5c5.6,25-0.8,53.4-0.8,53.4s13.6,7.9,16.9,22.9c0,0,1.8,0.8,3.2,3
		c3.8,4.7,8.7,15.4,0.9,36.6c0,0-4.6-9.9-14.4,0.8c-0.8,1.2-1.7,2.3-2.5,3.5c18.7,25.7,32.9,52.4,40.1,78.6
		c8.3-13.6,15-28.5,19.7-44.5C508.1,353.2,510.2,330.6,508.3,308.8"/>
	<path fill="#266092" d="M182.9,376.6c-0.6-26.4,2.9-51.8,10.6-76.2c6.5-20.4,15.2-37.6,24.5-52c1.4-2.8,3.8-7.1,6.6-12.2
		c-35.4-3.8-67.6,34-80,50.9c-8.2,39.8-2.7,79.6,13.4,114.4C166.6,393.4,175,385,182.9,376.6"/>
	<path fill="#266092" d="M416.2,422.2c-0.4,17.6,8.3,31.2,14.8,52.2c16-11.3,30.2-25.1,42.1-41.1c-5.3-26.3-19.2-54.2-38.3-81.1
		C422.8,371.7,416.9,390,416.2,422.2"/>
	<path fill="#266092" d="M260,188.4c6-2.7,13.3-5.9,21.3-9.3c-3.5-3.3-6.2-7.1-7.9-11.5c-2.7-7-2.6-14.1-1.7-19.8
		c-26.3,8-50.6,21.7-70.9,40.3c0.9,0,1.9,0,2.8,0.1C221,187.1,245.8,187.9,260,188.4"/>
	<path fill="#266092" d="M230.7,225.3c2.5-4.4,5-8.8,7.2-12.8c-9.8-6.4-15.9-11-32.7-12.5c-6.9-0.2-12.7,0-16.8,0.3
		c-15.3,16.8-27.6,36.7-35.9,59C171.3,239.9,199.4,219.2,230.7,225.3"/>
	<path fill="#79BC43" d="M289,185.9l-12.7,18.5c0,0,9.6,6.7,17.5,15.7c-13.8-2.8-29.1-5.4-29.1-5.4l-24.1,13.1l11.3-18.7
		c0,0-7.6-6.5-16.4-12.1c9.6,0.3,27.9,1.8,27.9,1.8L289,185.9z"/>
	<path fill="#79BC43" d="M299.2,296.2c0,0-3.4,9.2-3.8,17.8c0,0-21,3.1-31.1,10C264.4,324,285.3,303.1,299.2,296.2"/>
	<path fill="#FFFFFF" d="M440.5,295.3c2.3-0.6,4.1-0.7,5.4-0.6c-0.4-1.1-1.1-2.7-2.4-4.2c-1.8-2.2-4.5-3.9-4.5-3.9
		C440.6,289.2,440.7,292.9,440.5,295.3"/>
	<path fill="#FFFFFF" d="M421.6,304.8c2.7-1.9,5.2-3.4,7.4-4.7c-0.4-1-1-2.4-2-4.1c-1.8-3.2-6.5-6-6.5-6
		C422.4,295.8,422,301.6,421.6,304.8"/>
	<path fill="#A0A2A3" d="M196.7,446.3c-17.8,7.3-60-2.7-60-2.7c42.6-2.4,84.3-33,84.3-33c0,0.1-0.1,0.2-0.1,0.2
		c-12.5,19.2-29.7,30.2-29.7,30.2C193,443.5,195,445.1,196.7,446.3"/>
	<path fill="#79BC43" d="M409.1,192.1c0,0-10.5-8.2-22.4,4.5C399.5,173.4,406.9,186.7,409.1,192.1"/>
	<path fill="#A0A2A3" d="M450.6,304.6c0,0-1.1-0.7-1.3-0.9c-6.6-3.5-18.5,6.8-26.3,11c-7.8,4.3-19.1,13.4-24.6,0.8
		c-5.5-12.5,7.2-32.1,11.6-44.5c9.7-27.3,10.1-43.3,8-52c9,10.1,11.8,29.5,11.8,29.5s3.3-36.4-14.5-46c0.4,1.3-0.1,5.8-0.4,9.4
		c0,0,0-0.1-0.1-0.1c-8.3,1.5-26.6-0.6-32.5-3.7c-22.5,24.1-47.1,57.7-65.5,88.6c-8,16.3-15.9,35.4-17.8,51c0,0-2.6-7-3.2-16.4
		c-10.2,3.9-45,21-52.4,73.4c0,0,22.1-22.8,46.5-31.7c0,0-15.5,40.5,14,112.2c0,0,11.9-44,36.9-55.1c15.1,75.1,59.5,76.4,72.4,127.5
		c0,0,13.6-26.5-2.8-71.5c0,0,5.6,1.6,10.4,7.2c0,0-0.7-13.2-13-41.6c-8-15.2-10.5-35.7-10.5-35.7c-7.2,6.5-9,28.6-9,28.6
		c-22-59.7,40.5-118.9,51.9-127.7c5.6-4.3,9-4.3,11.1-3.3C453.4,309.3,453.2,306.4,450.6,304.6"/>
	<path fill="#A0A2A3" d="M490.1,198.8c-33.5-44.2-82.1-72.7-136.9-80.2c-9.5-1.3-19.1-2-28.6-2c-102.9,0-191.2,77-205.2,179.1
		c-5.8,42.4,1.3,84.6,20.3,121.9c2.4-2,4.7-4,7.1-6.1c-17.4-35.2-24-74.8-18.5-114.6c13.5-97.6,97.8-171.3,196.3-171.3
		c9.1,0,18.3,0.6,27.3,1.9c52.4,7.2,98.9,34.5,131,76.8c32,42.3,45.7,94.4,38.5,146.8c-8,57.8-40.8,107.2-86.7,137.9
		c0.6,3.1,1.2,6.3,1.6,9.7c49.7-31.9,85.5-84.5,94-146.4C537.9,297.5,523.6,243,490.1,198.8"/>
	<path fill="#FFFFFF" d="M193.7,102.4c-10,0-18.1,8.1-18.1,18.1c0,10,8.1,18.1,18.1,18.1s18.1-8.1,18.1-18.1
		C211.8,110.5,203.7,102.4,193.7,102.4 M193.7,130.4c-5.5,0-9.9-4.4-9.9-9.9c0-5.5,4.4-9.9,9.9-9.9c5.5,0,9.9,4.4,9.9,9.9
		C203.6,125.9,199.2,130.4,193.7,130.4"/>
	<path fill="#FFFFFF" d="M153.2,147.6l-4.2,2.4c-1.6,0.9-2.5,0.9-3.3,0.1c-1-0.9-0.8-2.4,0.5-3.8c0,0,0,0,0,0
		c1.5-1.7,3.2-2.5,5.3-2.7l0.7-0.1l-0.5-8.1l-0.7,0c-3.9,0.1-7.7,2-11,5.7c-2.1,2.3-3.4,5.1-3.7,7.8c-0.3,3.1,0.9,6,3.3,8.3
		c3.8,3.5,8.3,3.7,13.8,0.7l3.8-2.1c2-1.1,3.2-1.5,4.3-0.6c1.3,1.1,1,2.8-0.9,4.8c0,0,0,0-0.1,0.1c-2.4,2.7-5.2,2.9-7.1,2.8l-0.7,0
		l-0.9,8.8l0.7,0c2.9,0.2,8.7-0.5,14.1-6.4c0.1-0.1,0.1-0.1,0.2-0.2c2.8-3.1,4.2-6.1,4.4-9c0.2-3-1.1-5.8-3.8-8.2
		C163.5,144.2,159.2,144.2,153.2,147.6"/>
	
		<rect x="64.5" y="326.3" transform="matrix(0.9997 -2.375906e-02 2.375906e-02 0.9997 -7.8226 2.0447)" fill="#FFFFFF" width="35.2" height="7.9"/>
	<polygon fill="#FFFFFF" points="132.1,207.8 145.4,187.9 138.9,183.6 130,196.9 125.1,193.6 132.7,182.1 126.2,177.8 118.5,189.3 
		113.7,186 122.6,172.7 116.1,168.4 102.8,188.3 	"/>
	<polygon fill="#FFFFFF" points="247.7,112.8 237.4,87.3 246.5,83.6 243.6,76.5 218.1,86.8 221,93.9 230,90.3 240.4,115.8 	"/>
	<polygon fill="#FFFFFF" points="102.9,228.2 78.1,239.5 77.6,240.7 110.5,254.1 113.5,246.8 96.4,239.8 121.3,228.5 121.8,227.3 
		88.9,213.9 85.9,221.2 	"/>
	<polygon fill="#FFFFFF" points="86.7,280.9 65.2,297.6 65,298.9 100.1,304.4 101.3,296.6 83.1,293.7 104.7,276.9 104.9,275.7 
		69.8,270.2 68.6,278 	"/>
	
		<rect x="377.5" y="88.7" transform="matrix(0.2842 -0.9588 0.9588 0.2842 193.98 445.0781)" fill="#FFFFFF" width="35.2" height="7.9"/>
	<polygon fill="#FFFFFF" points="579.5,377.7 581.3,370 547,362 541.7,384.8 549.5,386.7 553,371.5 	"/>
	<path fill="#FFFFFF" d="M567.2,307.3c-10,0-18.1,8.1-18.1,18.1c0,10,8.1,18.1,18.1,18.1c10,0,18.1-8.1,18.1-18.1
		C585.3,315.4,577.2,307.3,567.2,307.3 M567.2,335.2c-5.5,0-9.9-4.4-9.9-9.9c0-5.5,4.4-9.9,9.9-9.9c5.5,0,9.9,4.4,9.9,9.9
		C577,330.8,572.6,335.2,567.2,335.2"/>
	<polygon fill="#FFFFFF" points="495.8,178.4 510.6,197.2 516.8,192.3 506.9,179.7 511.5,176.1 520.1,186.9 526.2,182 517.6,171.2 
		522.2,167.6 532.1,180.2 538.3,175.3 523.4,156.5 	"/>
	<polygon fill="#FFFFFF" points="520.2,435.8 507.4,456 514,460.2 522.6,446.6 527.6,449.8 520.2,461.5 526.8,465.7 534.2,454 
		539.1,457.1 530.6,470.7 537.1,474.8 549.9,454.6 	"/>
	<polygon fill="#FFFFFF" points="359.6,102.4 363.2,75.1 372.9,76.4 374,68.8 346.7,65.2 345.6,72.8 355.4,74.1 351.8,101.4 	"/>
	<polygon fill="#FFFFFF" points="550.1,415 569.3,414.1 572.5,406 533.5,407.8 533.1,408.8 560.1,437 563.3,428.9 	"/>
	<polygon fill="#FFFFFF" points="437.8,110.5 431.5,86.8 431.5,86.6 430.5,86.1 414,117.6 421,121.2 428.6,106.7 432.2,120.2 
		433.1,120.7 446.1,115.9 438.6,130.4 445.6,134.1 462.1,102.6 461,102 	"/>
	<polygon fill="#FFFFFF" points="88,375.9 73.6,395.8 73.5,395.9 73.8,397.1 108.6,389.7 107,382 90.9,385.4 99,374.1 98.8,373.1 
		86.8,366 102.9,362.6 101.2,354.8 66.4,362.2 66.7,363.4 	"/>
	<polygon fill="#FFFFFF" points="563.4,277.7 578.2,265.3 578,264.1 559,259.6 574.1,249.6 572.2,241.5 540.7,262.4 541,263.6 
		562.2,268.5 545.5,282.5 545.8,283.7 583.4,288 581.5,279.9 	"/>
	<path fill="#FFFFFF" d="M540.8,225.8c3,3.2,8,3.6,12.4,1.5c6.6-3.3,8.7-9.8,5-17.2l-5.8-11.8l-31.6,15.6l3.5,7.1l14.6-7.2l-10,16.6
		l4.2,8.4C533.1,238.8,540.3,226.6,540.8,225.8 M542.4,217.7l-2.2-4.5l8.8-4.3l2.2,4.5c1.6,3.2,0.8,5.5-2,6.9
		C546.2,221.7,544,220.9,542.4,217.7"/>
	<path fill="#FFFFFF" d="M492.3,148c2-0.5,3.8-1.7,5.3-3.3c2.2-2.6,3.1-5.7,2.5-8.8c-0.5-2.5-1.9-4.8-4.2-6.8l-4.4-3.8l-5.9-5.2
		l-5.2,5.9l-3.5,4l-0.3,0.3l-4.9,5.6l-0.3,0.3l-3.9,4.5l-5.2,5.9l5.9,5.2l5.2,4.5c2.3,2,4.9,3,7.7,3.1c3.3,0.1,6.4-1.3,8.5-3.7
		C491.6,153.5,492.5,150.8,492.3,148 M486.4,131.1l4.4,3.8c1.8,1.6,2.1,3.1,0.8,4.6c-1.6,1.8-3.5,0.8-4.9-0.4l-4.1-3.6L486.4,131.1z
		 M478.7,150.4l-5.2-4.5l4.2-4.8l4.8,4.2c2,1.7,2.5,3.8,1.2,5.2C482.5,152,480.5,151.9,478.7,150.4"/>
	<path fill="#FFFFFF" d="M487,478.9c1.4-1.4,3.2-2.7,5.2-3.7c3.9-1.9,9.5-1.9,10.1-1.9l0,8c-1.7,0-5,0.3-6.6,1.1
		c-2.5,1.2-4.2,3-4.7,4.9c-0.3,1.2,0.1,2.2,0.7,2.7c0.6,0.5,1.3,0.7,2.2,0.4c0.7-0.2,2-0.9,3.2-1.5c2.9-1.4,6.1-3,8.9-3.3
		c3-0.3,5.8,0.6,7.9,2.6c2.5,2.4,3.4,5.7,3.3,8c-0.2,2.4-1.3,7-7.1,10.6c-3.4,2.1-8.2,2.7-8.8,2.8l-1-7.9c1.4-0.2,4-0.9,5.6-1.7
		c4.1-2,4.2-6.7,1-6.5c-1.3,0.1-4.3,1.6-6.2,2.5c-1.6,0.8-3.1,1.5-4.3,1.9c-3.7,1.2-7.5,0.4-10.2-2.2c-2.8-2.7-3.9-6.7-2.9-10.6
		C483.8,482.9,485.1,480.7,487,478.9"/>
	<polygon fill="#FFFFFF" points="281.6,86.2 292.4,102 301,100.5 279.1,68.3 278,68.5 268.1,106.2 276.7,104.7 	"/>
</g>
</svg>
